<?xml version="1.0" encoding="utf-8"?>
<!-- Svg Vector Icons : http://www.onlinewebfonts.com/icon -->
<!DOCTYPE svg PUBLIC "-//W3C//DTD SVG 1.1//EN" "http://www.w3.org/Graphics/SVG/1.1/DTD/svg11.dtd">
<svg version="1.1" xmlns="http://www.w3.org/2000/svg" xmlns:xlink="http://www.w3.org/1999/xlink" x="0px" y="0px" viewBox="0 0 1000 1000" enable-background="new 0 0 1000 1000" xml:space="preserve">
<metadata> Svg Vector Icons : http://www.onlinewebfonts.com/icon </metadata>
<g><path d="M438.8,789.1c0,33.8,27.4,61.3,61.3,61.3c33.8,0,61.3-27.4,61.3-61.3c0-33.8-27.4-61.2-61.3-61.2C466.2,727.9,438.8,755.3,438.8,789.1z M500,990C229.8,990,10,770.2,10,500C10,229.8,229.8,10,500,10s490,219.8,490,490C990,770.2,770.2,990,500,990z M500,106.6c-216.9,0-393.4,176.5-393.4,393.4c0,216.9,176.5,393.4,393.4,393.4c216.9,0,393.4-176.5,393.4-393.4C893.4,283.1,716.9,106.6,500,106.6z M498.2,686.7c-23.9,0-43.4-19.4-43.4-43.3v5.4c0-70.9,54.2-125.1,102-172.9c35.1-35.1,65.7-54.3,71.4-91.5c10.8-71.4-58.3-131-130-131c-72.9,0-130,56.3-130,128.1c0,23.9-19.4,43.3-43.3,43.3c-23.9,0-43.3-19.4-43.3-43.3c0-118.4,97.2-214.8,216.7-214.8c119.5,0,216.7,97.7,216.7,217.7c0,64.9-49.2,105.3-96.8,152.9c-37.7,37.6-76.6,76.6-76.6,111.5v-5.4C541.6,667.2,522.2,686.7,498.2,686.7z"/></g>
</svg>